<?xml version="1.0" encoding="UTF-8"?>
<svg width="24px" height="24px" viewBox="0 0 24 24" version="1.1" xmlns="http://www.w3.org/2000/svg" xmlns:xlink="http://www.w3.org/1999/xlink">
    <title>UI Icons /social_Apple</title>
    <g id="UI-Icons-/social_Apple" stroke="none" stroke-width="1" fill="none" fill-rule="evenodd">
        <path d="M15.1034106,5.20501008 C14.3912072,6.04469906 13.2516818,6.70698897 12.1121564,6.61237613 C11.9697157,5.477022 12.5276084,4.27070825 13.1804615,3.5256321 C13.8926649,2.66228991 15.1390208,2.04730642 16.1479756,2 C16.2666762,3.18266055 15.8037439,4.34166788 15.1034106,5.20501008 L15.1034106,5.20501008 Z M16.1361055,6.83708163 C14.4861677,6.74246879 13.073631,7.77138346 12.2902072,7.77138346 C11.4949134,7.77138346 10.2960377,6.88438805 8.99033153,6.90804126 C7.29291345,6.93169447 5.71419594,7.88964952 4.84768181,9.41528162 C3.06717334,12.4665458 4.38474961,16.9843091 6.1059078,19.4678963 C6.94868181,20.6978632 7.95763661,22.0460962 9.28708294,21.9987898 C10.5453089,21.9514834 11.0438513,21.182754 12.5632185,21.182754 C14.0944558,21.182754 14.5336479,21.9987898 15.8630942,21.9751366 C17.2400208,21.9514834 18.1065349,20.7451696 18.9493089,19.5152027 C19.9107835,18.1196632 20.3024954,16.7596036 20.3262355,16.688644 C20.3024954,16.6649908 17.6673428,15.6597293 17.6436027,12.6321183 C17.6198626,10.1012247 19.7208626,8.89491098 19.815823,8.82395135 C18.6288174,7.07361374 16.7770886,6.88438805 16.1361055,6.83708163 L16.1361055,6.83708163 Z" id="Shape" fill="#FFFFFF"></path>
    </g>
</svg>